<svg width="36" height="36" viewBox="0 0 36 36" fill="none" xmlns="http://www.w3.org/2000/svg">
<path d="M3 13.5C4.19347 13.5 5.33807 13.9741 6.18198 14.818C7.02589 15.6619 7.5 16.8065 7.5 18C7.5 19.1935 7.02589 20.3381 6.18198 21.182C5.33807 22.0259 4.19347 22.5 3 22.5V25.5C3 26.2957 3.31607 27.0587 3.87868 27.6213C4.44129 28.1839 5.20435 28.5 6 28.5H30C30.7957 28.5 31.5587 28.1839 32.1213 27.6213C32.6839 27.0587 33 26.2957 33 25.5V22.5C31.8065 22.5 30.6619 22.0259 29.818 21.182C28.9741 20.3381 28.5 19.1935 28.5 18C28.5 16.8065 28.9741 15.6619 29.818 14.818C30.6619 13.9741 31.8065 13.5 33 13.5V10.5C33 9.70435 32.6839 8.94129 32.1213 8.37868C31.5587 7.81607 30.7957 7.5 30 7.5H6C5.20435 7.5 4.44129 7.81607 3.87868 8.37868C3.31607 8.94129 3 9.70435 3 10.5V13.5Z" fill="#82EAE9"/>
<path d="M13.5 13.5H13.515H13.5Z" fill="#82EAE9"/>
<path d="M22.5 13.5L13.5 22.5L22.5 13.5Z" fill="#82EAE9"/>
<path d="M22.5 22.5H22.515H22.5Z" fill="#82EAE9"/>
<path d="M13.5 13.5H13.515H13.5Z" fill="#82EAE9"/>
<path d="M22.5 13.5L13.5 22.5L22.5 13.5Z" fill="#82EAE9"/>
<path d="M22.5 22.5H22.515H22.5Z" fill="#82EAE9"/>
<path d="M13.5 13.5H13.515H13.5Z" fill="#82EAE9"/>
<path d="M22.5 13.5L13.5 22.5L22.5 13.5Z" fill="#82EAE9"/>
<path d="M22.5 22.5H22.515H22.5Z" fill="#82EAE9"/>
<path d="M13.5 13.5H13.515M22.5 13.5L13.5 22.5M22.5 22.5H22.515M13.5 13.5H13.515M22.5 13.5L13.5 22.5M22.5 22.5H22.515M13.5 13.5H13.515M22.5 13.5L13.5 22.5M22.5 22.5H22.515M3 13.5C4.19347 13.5 5.33807 13.9741 6.18198 14.818C7.02589 15.6619 7.5 16.8065 7.5 18C7.5 19.1935 7.02589 20.3381 6.18198 21.182C5.33807 22.0259 4.19347 22.5 3 22.5V25.5C3 26.2957 3.31607 27.0587 3.87868 27.6213C4.44129 28.1839 5.20435 28.5 6 28.5H30C30.7957 28.5 31.5587 28.1839 32.1213 27.6213C32.6839 27.0587 33 26.2957 33 25.5V22.5C31.8065 22.5 30.6619 22.0259 29.818 21.182C28.9741 20.3381 28.5 19.1935 28.5 18C28.5 16.8065 28.9741 15.6619 29.818 14.818C30.6619 13.9741 31.8065 13.5 33 13.5V10.5C33 9.70435 32.6839 8.94129 32.1213 8.37868C31.5587 7.81607 30.7957 7.5 30 7.5H6C5.20435 7.5 4.44129 7.81607 3.87868 8.37868C3.31607 8.94129 3 9.70435 3 10.5V13.5Z" stroke="#82EAE9" stroke-width="2" stroke-linecap="round" stroke-linejoin="round"/>
<path d="M13 13H13.015H13Z" fill="white"/>
<path d="M21.985 13L13 22L21.985 13Z" fill="white"/>
<path d="M21.985 22H22H21.985Z" fill="white"/>
<path d="M13 13H13.015M21.985 13L13 22M21.985 22H22" stroke="white" stroke-width="3" stroke-linecap="round" stroke-linejoin="round"/>
</svg>
