<svg width="33" height="33" viewBox="0 0 33 33" fill="none" xmlns="http://www.w3.org/2000/svg">
<path d="M15.8469 3.1556C15.9072 3.03386 16.0002 2.93138 16.1157 2.85974C16.2311 2.78809 16.3642 2.75012 16.5 2.75012C16.6359 2.75012 16.769 2.78809 16.8844 2.85974C16.9998 2.93138 17.0929 3.03386 17.1532 3.1556L20.3294 9.58923C20.5387 10.0127 20.8475 10.379 21.2295 10.6568C21.6115 10.9347 22.0552 11.1156 22.5225 11.1842L29.6258 12.2237C29.7604 12.2432 29.8868 12.3 29.9908 12.3876C30.0948 12.4752 30.1722 12.5902 30.2143 12.7196C30.2564 12.8489 30.2614 12.9874 30.2288 13.1195C30.1963 13.2515 30.1274 13.3718 30.03 13.4667L24.893 18.469C24.5543 18.7991 24.3008 19.2066 24.1544 19.6565C24.0081 20.1063 23.9732 20.5849 24.0529 21.0512L25.2657 28.1187C25.2894 28.2533 25.2749 28.3918 25.2237 28.5184C25.1726 28.6451 25.0868 28.7548 24.9763 28.8351C24.8658 28.9154 24.7349 28.963 24.5986 28.9725C24.4623 28.9819 24.3261 28.9529 24.2055 28.8887L17.8558 25.5502C17.4374 25.3305 16.9719 25.2158 16.4993 25.2158C16.0268 25.2158 15.5613 25.3305 15.1429 25.5502L8.79453 28.8887C8.67399 28.9525 8.53795 28.9812 8.4019 28.9716C8.26585 28.9619 8.13525 28.9142 8.02494 28.834C7.91463 28.7538 7.82905 28.6442 7.77794 28.5178C7.72682 28.3913 7.71221 28.2531 7.73578 28.1187L8.94716 21.0526C9.02718 20.5861 8.99251 20.1071 8.84615 19.657C8.69978 19.2069 8.44612 18.7992 8.10703 18.469L2.97003 13.4681C2.87185 13.3733 2.80227 13.2528 2.76923 13.1203C2.73619 12.9879 2.74101 12.8488 2.78314 12.719C2.82527 12.5892 2.90303 12.4738 3.00754 12.386C3.11205 12.2981 3.23913 12.2415 3.37428 12.2224L10.4762 11.1842C10.944 11.1162 11.3883 10.9354 11.7708 10.6576C12.1534 10.3797 12.4626 10.0131 12.672 9.58923L15.8469 3.1556Z" fill="#FFDBA2" stroke="#FFDBA2" stroke-width="2" stroke-linecap="round" stroke-linejoin="round"/>
</svg>
